<?xml version="1.0" encoding="utf-8"?>
<!-- Generator: Adobe Illustrator 28.1.0, SVG Export Plug-In . SVG Version: 6.00 Build 0)  -->
<svg version="1.1" id="Layer_1" xmlns="http://www.w3.org/2000/svg" xmlns:xlink="http://www.w3.org/1999/xlink" x="0px" y="0px"
	 viewBox="0 0 300 50.56" style="enable-background:new 0 0 300 50.56;" xml:space="preserve">
<style type="text/css">
	.st0{fill:#FFFFFF;}
	.st1{fill:#091D2A;}
	.st2{fill:#0741A1;}
</style>
<g id="Layer_4">
	<rect x="145.91" class="st0" width="154.09" height="50.56"/>
	<g>
		<path class="st1" d="M186.15,28.36h0.2v10.82h-7.95V10.93h7.95V21.9l0,0l9-10.98h8.39l-11.1,13.64l11.18,14.61h-9L186.15,28.36z"
			/>
		<path class="st1" d="M231.51,10.93v28.24h-7.87V17.26h-6.3l-0.16,4.6c-0.36,11.02-1.86,17.79-9.04,17.79
			c-1.09,0-2.3-0.16-3.63-0.48l0.44-6.54c0.36,0.08,0.73,0.12,1.09,0.12c3.27,0,3.87-4.2,4.12-10.57l0.4-11.26L231.51,10.93
			L231.51,10.93z"/>
		<path class="st1" d="M254.03,33.68H243.2l-2.01,5.49h-7.39l11.3-28.25h7.13l11.34,28.25h-7.53L254.03,33.68z M251.91,27.79
			l-3.29-9.04l-3.29,9.04H251.91z"/>
		<path class="st1" d="M293.53,32.84v12.03h-6.55v-5.69h-16.21v5.69h-6.58V32.84h0.9c3.22-0.08,4.05-5.65,4.3-13.2l0.29-8.72h20.41
			v21.91L293.53,32.84L293.53,32.84z M273.45,32.84h9.59V17.26h-7.27l-0.11,3.07C275.48,25.86,274.93,30.46,273.45,32.84z"/>
		<path class="st1" d="M174.1,29.84c-1.7,2.12-3.79,3.28-6.38,3.28c-4.47,0-7.57-3.23-7.57-8.07s3.11-8.07,7.57-8.07
			c2.59,0,4.68,1.16,6.38,3.28v-8.5c-1.98-0.91-4.25-1.4-6.77-1.4c-8.62,0-14.95,6.09-14.95,14.69s6.33,14.69,14.95,14.69
			c2.52,0,4.8-0.48,6.77-1.39V29.84z"/>
	</g>
</g>
<g id="Layer_2_00000175312279162425708820000012301771979910079922_">
	<rect class="st2" width="145.91" height="50.56"/>
	<g>
		<path class="st0" d="M26.47,17.26H20.1v21.91h-7.87V17.26H5.82v-6.33h20.65V17.26z"/>
		<path class="st0" d="M46.94,33v6.17H29.69V10.93h17.26v6.17H37.6v4.76h8.25v5.97H37.6V33H46.94z"/>
		<path class="st0" d="M58.5,10.89l4.75,7.67l4.71-7.67h8.73L67.96,24.4l9.49,14.77H68.6l-5.35-8.35l-5.31,8.35h-8.66l9.45-14.41
			l-8.85-13.88h8.62V10.89z"/>
		<path class="st0" d="M105.94,10.93v28.24h-7.63V28.16H87.9v11.02h-7.63V10.93h7.63v10.61h10.41V10.93H105.94z"/>
		<path class="st0" d="M110.32,25.05c0-8.47,6.31-14.69,14.89-14.69s14.89,6.21,14.89,14.69s-6.31,14.69-14.89,14.69
			S110.32,33.52,110.32,25.05z M132.44,25.05c0-4.88-3.18-8.07-7.23-8.07c-4.06,0-7.23,3.19-7.23,8.07s3.18,8.07,7.23,8.07
			C129.26,33.12,132.44,29.93,132.44,25.05z"/>
	</g>
</g>
</svg>
