<svg xmlns="http://www.w3.org/2000/svg" viewBox="0 0 55.15 34.51"><defs><style>.cls-1{fill:#ed0006;}.cls-1,.cls-2,.cls-3{fill-rule:evenodd;}.cls-2{fill:#f9a000;}.cls-3{fill:#ff5e00;}</style></defs><title>Ресурс 4</title><g id="Слой_2" data-name="Слой 2"><g id="Слой_1-2" data-name="Слой 1"><path class="cls-1" d="M27.57,30.39a16.34,16.34,0,0,1-10.84,4.12A17,17,0,0,1,0,17.26,17,17,0,0,1,16.73,0,16.34,16.34,0,0,1,27.57,4.12,16.36,16.36,0,0,1,38.42,0,17,17,0,0,1,55.15,17.26,17,17,0,0,1,38.42,34.51,16.36,16.36,0,0,1,27.57,30.39Z"/><path class="cls-2" d="M27.57,30.39a17.61,17.61,0,0,0,0-26.27A16.36,16.36,0,0,1,38.42,0,17,17,0,0,1,55.15,17.26,17,17,0,0,1,38.42,34.51,16.36,16.36,0,0,1,27.57,30.39Z"/><path class="cls-3" d="M27.57,4.12a17.61,17.61,0,0,1,0,26.27,17.63,17.63,0,0,1,0-26.27Z"/></g></g></svg>