<svg xmlns="http://www.w3.org/2000/svg" xmlns:xlink="http://www.w3.org/1999/xlink" viewBox="0 0 72.5 21.73"><defs><style>.cls-1{fill:none;}.cls-2{clip-path:url(#clip-path);}.cls-3{fill:url(#Безымянный_градиент);}.cls-4{fill:#4fad50;}</style><clipPath id="clip-path" transform="translate(-7.46 -19.29)"><rect class="cls-1" width="87" height="60"/></clipPath><linearGradient id="Безымянный_градиент" x1="58.52" y1="38.09" x2="79.91" y2="38.09" gradientTransform="matrix(1, 0, 0, -1, 0, 62)" gradientUnits="userSpaceOnUse"><stop offset="0" stop-color="#27b1e6"/><stop offset="1" stop-color="#148aca"/></linearGradient></defs><title>Ресурс 3</title><g id="Слой_2" data-name="Слой 2"><g id="Слой_1-2" data-name="Слой 1"><g class="cls-2"><path class="cls-3" d="M72.5,19.29h-14c.81,4.76,5.28,9.25,10.16,9.25H79.82A5.74,5.74,0,0,0,80,27,7.65,7.65,0,0,0,72.5,19.29Z" transform="translate(-7.46 -19.29)"/><path class="cls-4" d="M59.77,29.38V41h6.77V34.85h6a7.62,7.62,0,0,0,7-5.47Z" transform="translate(-7.46 -19.29)"/><path class="cls-4" d="M35.92,19.29V40.87h6a2.77,2.77,0,0,0,2.3-1.54c4.07-8.27,5.29-10.79,5.29-10.79h.81V40.87h6.78V19.29h-6a3.21,3.21,0,0,0-2.3,1.54C45.4,28,43.5,31.62,43.5,31.62h-.81V19.29Z" transform="translate(-7.46 -19.29)"/><path class="cls-4" d="M7.46,41V19.43h6.77s1.9,0,3,3.08c2.71,8.13,3,9.25,3,9.25s.54-2,3-9.25c1.08-3.08,3-3.08,3-3.08h6.77V41H26.16V29.38h-.82L21.55,41h-3l-3.8-11.63H14V41Z" transform="translate(-7.46 -19.29)"/></g></g></g></svg>