<svg xmlns="http://www.w3.org/2000/svg" viewBox="0 0 60.73 19.77"><defs><style>.cls-1{fill:#00579f;}.cls-2{fill:#faa61a;}</style></defs><title>Ресурс 2</title><g id="Слой_2" data-name="Слой 2"><g id="Слой_1-2" data-name="Слой 1"><path class="cls-1" d="M26.31,19.48H21.4L24.47.35h4.92Z"/><path class="cls-1" d="M44.15.81A12.24,12.24,0,0,0,39.73,0c-4.85,0-8.28,2.61-8.3,6.33,0,2.75,2.45,4.27,4.31,5.19s2.55,1.55,2.55,2.38c0,1.29-1.53,1.88-2.95,1.88a9.75,9.75,0,0,1-4.61-1l-.65-.31-.69,4.3a14.85,14.85,0,0,0,5.49,1c5.16,0,8.52-2.57,8.56-6.54,0-2.18-1.3-3.85-4.13-5.21-1.72-.87-2.78-1.47-2.78-2.36S37.43,4,39.37,4A8.41,8.41,0,0,1,43,4.74l.45.21Z"/><path class="cls-1" d="M50.69,12.7l2-5.35s.4-1.12.65-1.83l.34,1.65s.93,4.58,1.13,5.53ZM56.76.35H53a2.43,2.43,0,0,0-2.57,1.58L43.07,19.48h5.17l1-2.87h6.32c.14.67.58,2.87.58,2.87h4.56Z"/><path class="cls-1" d="M17.29.35l-4.82,13-.53-2.64a14.59,14.59,0,0,0-6.8-8L9.55,19.46h5.21L22.49.35Z"/><path class="cls-2" d="M8,.35H.08L0,.73c6.17,1.59,10.26,5.42,11.94,10L10.22,2A2,2,0,0,0,8,.35Z"/></g></g></svg>