<?xml version="1.0" encoding="utf-8"?>
<!-- Generator: Adobe Illustrator 21.0.0, SVG Export Plug-In . SVG Version: 6.00 Build 0)  -->
<svg version="1.1" id="Layer_1" xmlns="http://www.w3.org/2000/svg" xmlns:xlink="http://www.w3.org/1999/xlink" x="0px" y="0px"
	 viewBox="0 0 24 24" style="enable-background:new 0 0 24 24;" xml:space="preserve">
<style type="text/css">
	.st0{fill:none;stroke:#000000;stroke-width:1.6;stroke-linecap:round;}
</style>
<path class="st0" d="M1.4,1.5h2.1c0.9,0,1.4,0,1.7,0.3C5.6,2,5.7,2.4,6,3.3l0.8,2.2"/>
<path class="st0" d="M15.7,14.8h-4.1c-1.7,0-2.6,0-3.2-0.4c-0.7-0.4-1-1.2-1.7-2.8l-0.2-0.5c-1.1-2.5-1.6-3.8-1-4.7
	C6,5.5,7.4,5.5,10.2,5.5h7c3.1,0,4.6,0,5.2,1s-0.2,2.3-1.7,5l-0.4,0.7c-0.8,1.3-1.1,2-1.7,2.3C17.9,14.8,17.2,14.8,15.7,14.8z"/>
<path class="st0" d="M16.4,14.8H8.7C7.2,14.8,6,16,6,17.5l0,0c0,0.7,0.6,1.3,1.3,1.3h12.8"/>
<circle cx="8.8" cy="22.2" r="1.5"/>
<circle cx="18.4" cy="22.2" r="1.5"/>
</svg>
