<?xml version="1.0" encoding="utf-8"?>
<!-- Generator: Adobe Illustrator 21.0.0, SVG Export Plug-In . SVG Version: 6.00 Build 0)  -->
<svg version="1.1" id="Layer_1" xmlns="http://www.w3.org/2000/svg" xmlns:xlink="http://www.w3.org/1999/xlink" x="0px" y="0px"
	 viewBox="0 0 600 600" style="enable-background:new 0 0 600 600;" xml:space="preserve">
<style type="text/css">
	.st0{fill:#1C1C1C;}
	.st1{fill:#FFFFFF;}
</style>
<circle class="st0" cx="300" cy="300" r="300"/>
<path class="st1" d="M245,300c0-30.4,24.6-55,55-55c30.4,0,55,24.6,55,55c0,30.4-24.6,55-55,55C269.6,355,245,330.4,245,300L245,300
	z M215.3,300c0,46.8,37.9,84.7,84.7,84.7c46.8,0,84.7-37.9,84.7-84.7c0-46.8-37.9-84.7-84.7-84.7C253.2,215.3,215.3,253.2,215.3,300
	L215.3,300z M368.3,212c0,10.9,8.9,19.8,19.8,19.8c10.9,0,19.8-8.9,19.8-19.8c0-10.9-8.9-19.8-19.8-19.8
	C377.1,192.2,368.3,201,368.3,212L368.3,212z M233.3,434.2c-16.1-0.7-24.8-3.4-30.6-5.7c-7.7-3-13.2-6.6-19-12.3
	c-5.8-5.8-9.4-11.3-12.3-19c-2.3-5.8-4.9-14.5-5.7-30.6c-0.8-17.4-1-22.6-1-66.6c0-44,0.2-49.3,1-66.6c0.7-16.1,3.4-24.8,5.7-30.6
	c3-7.7,6.6-13.2,12.3-19c5.8-5.8,11.3-9.3,19-12.3c5.8-2.3,14.5-4.9,30.6-5.7c17.4-0.8,22.6-1,66.7-1c44.1,0,49.3,0.2,66.7,1
	c16.1,0.7,24.8,3.4,30.6,5.7c7.7,3,13.2,6.6,19,12.3c5.8,5.8,9.3,11.3,12.3,19c2.3,5.8,4.9,14.5,5.7,30.6c0.8,17.4,1,22.6,1,66.6
	c0,44-0.2,49.3-1,66.6c-0.7,16.1-3.4,24.8-5.7,30.6c-3,7.7-6.6,13.2-12.3,19c-5.8,5.8-11.3,9.3-19,12.3c-5.8,2.3-14.6,4.9-30.6,5.7
	c-17.4,0.8-22.6,1-66.7,1C255.9,435.2,250.7,435,233.3,434.2L233.3,434.2z M232,136.1c-17.6,0.8-29.6,3.6-40.1,7.7
	c-10.9,4.2-20.1,9.9-29.2,19c-9.2,9.2-14.8,18.4-19,29.2c-4.1,10.5-6.9,22.5-7.7,40c-0.8,17.6-1,23.2-1,68c0,44.8,0.2,50.4,1,68
	c0.8,17.6,3.6,29.5,7.7,40c4.2,10.8,9.9,20,19,29.2c9.2,9.2,18.4,14.8,29.2,19c10.5,4.1,22.5,6.9,40.1,7.7c17.6,0.8,23.2,1,68,1
	c44.8,0,50.4-0.2,68-1c17.6-0.8,29.6-3.6,40.1-7.7c10.8-4.2,20-9.9,29.2-19c9.2-9.2,14.8-18.4,19-29.2c4.1-10.5,6.9-22.5,7.7-40
	c0.8-17.6,1-23.2,1-68c0-44.8-0.2-50.4-1-68c-0.8-17.6-3.6-29.5-7.7-40c-4.2-10.8-9.9-20-19-29.2c-9.2-9.2-18.4-14.8-29.2-19
	c-10.5-4.1-22.5-6.9-40.1-7.7c-17.6-0.8-23.2-1-68-1C255.2,135.1,249.6,135.3,232,136.1L232,136.1z"/>
</svg>
