<?xml version="1.0" encoding="utf-8"?>
<!-- Generator: Adobe Illustrator 21.0.0, SVG Export Plug-In . SVG Version: 6.00 Build 0)  -->
<svg version="1.1" id="Layer_1" xmlns="http://www.w3.org/2000/svg" xmlns:xlink="http://www.w3.org/1999/xlink" x="0px" y="0px"
	 viewBox="0 0 24 24" style="enable-background:new 0 0 24 24;" xml:space="preserve">
<style type="text/css">
	.st0{fill:#0C0C0C;}
</style>
<path class="st0" d="M23.7,23.7c0.4-0.4,0.4-0.9,0-1.3l-6.2-6.2c1.6-2,2.5-4.5,2.3-7c-0.2-2.6-1.3-4.9-3.2-6.7S12.3-0.1,9.7,0
	s-5,1.1-6.8,2.9S0.1,7.2,0,9.7c-0.1,2.6,0.9,5,2.6,6.9c1.7,1.9,4.1,3,6.7,3.2c2.6,0.2,5.1-0.6,7-2.3l6.2,6.2
	C22.8,24.1,23.4,24.1,23.7,23.7z M1.8,9.9c0-1.6,0.5-3.2,1.4-4.5c0.9-1.3,2.2-2.4,3.6-3C8.3,1.8,10,1.7,11.5,2
	c1.6,0.3,3,1.1,4.2,2.2c1.1,1.1,1.9,2.6,2.2,4.2c0.3,1.6,0.2,3.2-0.5,4.7c-0.6,1.5-1.7,2.7-3,3.6c-1.3,0.9-2.9,1.4-4.5,1.4
	c-2.2,0-4.2-0.9-5.7-2.4C2.7,14.2,1.8,12.1,1.8,9.9z"/>
</svg>
