<?xml version="1.0" encoding="utf-8"?>
<!-- Generator: Adobe Illustrator 21.0.0, SVG Export Plug-In . SVG Version: 6.00 Build 0)  -->
<svg version="1.1" id="Layer_2" xmlns="http://www.w3.org/2000/svg" xmlns:xlink="http://www.w3.org/1999/xlink" x="0px" y="0px"
	 viewBox="0 0 600 600" style="enable-background:new 0 0 600 600;" xml:space="preserve">
<style type="text/css">
	.st0{fill:#0050AF;}
</style>
<path class="st0" d="M300,570c-72.1,0-139.9-28.1-190.9-79.1S30,372.1,30,300c0-72.1,28.1-139.9,79.1-190.9S227.9,30,300,30
	c72.1,0,139.9,28.1,190.9,79.1S570,227.9,570,300c0,72.1-28.1,139.9-79.1,190.9S372.1,570,300,570z M300,70
	C173.2,70,70,173.2,70,300s103.2,230,230,230s230-103.2,230-230S426.8,70,300,70z M389.8,394.1c8-7.6,8.3-20.3,0.7-28.3L320,292
	V171.7c0-11-9-20-20-20s-20,9-20,20V300c0,5.1,2,10.1,5.5,13.8l76,79.7c3.9,4.1,9.2,6.2,14.5,6.2C381,399.7,385.9,397.8,389.8,394.1
	z"/>
</svg>
