<?xml version="1.0" encoding="utf-8"?>
<!-- Generator: Adobe Illustrator 21.0.0, SVG Export Plug-In . SVG Version: 6.00 Build 0)  -->
<svg version="1.1" id="Layer_1" xmlns="http://www.w3.org/2000/svg" xmlns:xlink="http://www.w3.org/1999/xlink" x="0px" y="0px"
	 viewBox="0 0 24 24" style="enable-background:new 0 0 24 24;" xml:space="preserve">
<style type="text/css">
	.st0{fill:none;stroke:#0C0C0C;stroke-width:1.6;stroke-linejoin:round;}
	.st1{fill:none;stroke:#0C0C0C;stroke-width:1.6;}
</style>
<path class="st0" d="M1.5,19.8c0-1.4,0.6-2.7,1.5-3.7c1-1,2.3-1.5,3.7-1.5h10.6c1.4,0,2.7,0.6,3.7,1.5s1.5,2.3,1.5,3.7
	c0,0.7-0.3,1.4-0.8,1.9s-1.2,0.8-1.9,0.8H4.2c-0.7,0-1.4-0.3-1.9-0.8C1.8,21.2,1.5,20.5,1.5,19.8z"/>
<path class="st1" d="M12.1,9.5c2.2,0,4-1.8,4-4s-1.8-4-4-4s-4,1.8-4,4S9.9,9.5,12.1,9.5z"/>
</svg>
