<?xml version="1.0" encoding="utf-8"?>
<!-- Generator: Adobe Illustrator 21.0.0, SVG Export Plug-In . SVG Version: 6.00 Build 0)  -->
<svg version="1.1" id="Layer_1" xmlns="http://www.w3.org/2000/svg" xmlns:xlink="http://www.w3.org/1999/xlink" x="0px" y="0px"
	 viewBox="0 0 600 600" style="enable-background:new 0 0 600 600;" xml:space="preserve">
<style type="text/css">
	.st0{fill:#1C1C1C;}
	.st1{fill:#FFFFFF;}
</style>
<circle class="st0" cx="300" cy="300" r="300"/>
<path class="st1" d="M155.3,294.8l169.3-69.8c16.7-7.2,73.4-30.5,73.4-30.5s26.2-10.2,23.9,14.6c-0.7,10.2-6.5,45.7-12.3,84.2
	l-18.2,114c0,0-1.5,16.7-13.8,19.6c-12.3,2.9-32.7-10.2-36.3-13.1c-2.9-2.2-54.5-34.9-73.4-50.8c-5.1-4.4-10.9-13.1,0.8-23.3
	c26.2-23.9,57.4-53.7,76.3-72.6c8.7-8.7,17.4-29-18.9-4.4l-102.5,69c0,0-11.6,7.2-33.4,0.7c-21.8-6.5-47.2-15.2-47.2-15.2
	S125.5,306.5,155.3,294.8L155.3,294.8z"/>
</svg>
