<?xml version="1.0" encoding="utf-8"?>
<!-- Generator: Adobe Illustrator 21.0.0, SVG Export Plug-In . SVG Version: 6.00 Build 0)  -->
<svg version="1.1" id="Layer_1" xmlns="http://www.w3.org/2000/svg" xmlns:xlink="http://www.w3.org/1999/xlink" x="0px" y="0px"
	 viewBox="0 0 600 600" style="enable-background:new 0 0 600 600;" xml:space="preserve">
<style type="text/css">
	.st0{fill:#1C1C1C;}
	.st1{fill:url(#SVGID_1_);}
</style>
<circle class="st0" cx="300" cy="300" r="300"/>
<linearGradient id="SVGID_1_" gradientUnits="userSpaceOnUse" x1="300" y1="133.5105" x2="300" y2="466.4895">
	<stop  offset="0" style="stop-color:#FFFFFF"/>
	<stop  offset="1" style="stop-color:#FFFFFF"/>
</linearGradient>
<path class="st1" d="M300,133.5c-91.1,0-165,73.8-165,164.9c0,30.8,8.4,59.6,23.1,84.2l-20.8,83.8l82.7-23.8
	c23.7,13.1,51,20.7,80,20.7c91.1,0,165-73.8,165-164.9C465,207.3,391.1,133.5,300,133.5z M301.9,436c-28.8,0-55.5-8.9-77.6-24.1
	l-47.1,13.6l12-48.5c-15.3-22.1-24.3-48.9-24.3-77.9c0-75.6,61.3-136.9,137-136.9c75.7,0,137,61.3,137,136.9
	C438.9,374.7,377.5,436,301.9,436z M320.6,340.1c3.8-4,7.7-7.9,11.4-11.9c2.9-3.1,6-7,10.2-8.2c5.8-1.6,11.6,2.1,16.7,4.6
	c5.8,2.9,10.4,5.6,15.5,8.6c4,2.3,7.4,5.5,7.7,10.3c0.3,5-1,11.4-3,16c-9.3,21.2-44.2,16.2-44.2,16.2
	c-97.1-18.1-116.4-105.8-116.4-105.8c-10-31.1,22.4-46.7,22.4-46.7c5.6-2.7,12.6-1.7,16.7,2.6c3,3.2,5.7,10.9,7.8,16.4
	c1.2,3,2.4,6,3.5,9c1.8,4.7,3.7,9.8,3.4,15c-0.2,5.4-5.1,9-8.3,12.7c-1.9,2.2-3.8,4.4-5.7,6.6C271.4,322.1,320.6,340.1,320.6,340.1z
	"/>
</svg>
