<?xml version="1.0" encoding="utf-8"?>
<!-- Generator: Adobe Illustrator 21.0.0, SVG Export Plug-In . SVG Version: 6.00 Build 0)  -->
<svg version="1.1" id="Layer_1" xmlns="http://www.w3.org/2000/svg" xmlns:xlink="http://www.w3.org/1999/xlink" x="0px" y="0px"
	 viewBox="0 0 600 600" style="enable-background:new 0 0 600 600;" xml:space="preserve">
<path d="M302,13.6c-117.4,0-216.9,100-216.9,218.5c0,124.1,115.3,251,192.8,340.1c0.3,0.4,12.8,14.3,28.3,14.3h1.4
	c15.5,0,27.9-13.9,28.2-14.3c72.8-83.6,179-221.6,179-340.1C514.8,113.6,437.3,13.6,302,13.6L302,13.6z M309.2,548.1
	c-0.6,0.6-1.5,1.3-2.3,1.9c-0.8-0.6-1.7-1.3-2.4-1.9l-9.4-10.8C221.6,453,120.9,337.6,120.9,232c0-99,82.9-182.7,181.1-182.7
	c122.3,0,177,91.8,177,182.7C479,312.1,421.9,418.5,309.2,548.1L309.2,548.1z M300.6,122c-59.3,0-107.4,48.1-107.4,107.4
	s48.1,107.4,107.4,107.4S408,288.7,408,229.4S360,122,300.6,122L300.6,122z M300.6,301c-39.5,0-72.4-32.9-72.4-72.4
	s32.1-71.6,71.6-71.6c39.5,0,71.6,32.1,71.6,71.6C371.4,268.1,340.1,301,300.6,301z"/>
</svg>
