<?xml version="1.0" encoding="utf-8"?>
<!-- Generator: Adobe Illustrator 28.1.0, SVG Export Plug-In . SVG Version: 6.00 Build 0)  -->
<svg version="1.1" id="Layer_1" xmlns="http://www.w3.org/2000/svg" xmlns:xlink="http://www.w3.org/1999/xlink" x="0px" y="0px"
	 viewBox="0 0 24 24" style="enable-background:new 0 0 24 24;" xml:space="preserve">
<style type="text/css">
	.st0{fill:none;stroke:#000000;stroke-width:1.6;}
</style>
<path class="st0" d="M18,1.4H6c-1.1,0-2,1.2-1.8,2.6c0.3,1.5,0.8,2.8,1.6,4c0.7,1.2,1.7,2.1,2.7,2.8c0.8,0.5,1.5,1.5,1.5,2.7v7.9
	c0,0.2,0,0.4,0.1,0.6c0.1,0.2,0.2,0.4,0.3,0.5c0.1,0.1,0.3,0.2,0.5,0.2c0.2,0,0.3,0,0.5-0.1l2-1.3c0.2-0.1,0.3-0.3,0.4-0.5
	c0.1-0.2,0.1-0.4,0.1-0.7v-6.6c0-1.2,0.6-2.2,1.5-2.7c1.1-0.7,2-1.6,2.7-2.8c0.7-1.2,1.3-2.5,1.6-4C20,2.6,19.1,1.4,18,1.4z"/>
</svg>
