<?xml version="1.0" encoding="utf-8"?>
<!-- Generator: Adobe Illustrator 21.0.0, SVG Export Plug-In . SVG Version: 6.00 Build 0)  -->
<svg version="1.1" id="Layer_1" xmlns="http://www.w3.org/2000/svg" xmlns:xlink="http://www.w3.org/1999/xlink" x="0px" y="0px"
	 viewBox="0 0 600 600" style="enable-background:new 0 0 600 600;" xml:space="preserve">
<path d="M389.4,382.4l-15.2-15.3l0,0L389.4,382.4z M402.5,369.4l15.2,15.3l0,0L402.5,369.4z M472.2,360.2l-10.3,19L472.2,360.2z
	 M527.2,390.2l-10.3,19L527.2,390.2z M542.7,484l15.2,15.3L542.7,484z M501.8,524.7l-15.2-15.3L501.8,524.7z M463.6,544l2,21.5l0,0
	L463.6,544z M179.4,421.8l15.2-15.3L179.4,421.8z M40.6,163L19,164.2l0,0L40.6,163z M227.3,204.8l15.2,15.3l0,0L227.3,204.8z
	 M231.8,128.3l17.3-13L231.8,128.3z M195.4,79.8l-17.3,13l0,0L195.4,79.8z M105.7,71.6L121,86.9l0,0L105.7,71.6z M60.5,116.5
	l-15.2-15.3l0,0L60.5,116.5z M273,328.8l15.2-15.3L273,328.8z M404.6,397.8l13.1-13.1L387.2,354l-13.1,13.1L404.6,397.8z
	 M461.8,379.2l55.1,29.9l20.7-38l-55.1-29.9L461.8,379.2z M527.5,468.7l-41,40.7l30.5,30.7l41-40.7L527.5,468.7z M461.6,522.5
	c-41.8,3.9-149.9,0.4-267-116l-30.5,30.7c127.8,127,249.4,133.2,301.5,128.4L461.6,522.5z M194.6,406.5
	C83,295.6,64.5,202.2,62.2,161.7L19,164.2c2.9,51,25.8,154.4,145.1,273L194.6,406.5z M234.2,228.4l8.3-8.2L212,189.5l-8.3,8.2
	L234.2,228.4z M249.1,115.3l-36.3-48.6l-34.6,25.9l36.3,48.6L249.1,115.3z M90.5,56.2l-45.2,45l30.5,30.7l45.2-45L90.5,56.2z
	 M219,213c-15.2-15.3-15.3-15.3-15.3-15.3c0,0,0,0,0,0c0,0-0.1,0.1-0.1,0.1c-0.1,0.1-0.1,0.1-0.2,0.2c-0.1,0.1-0.3,0.3-0.4,0.4
	c-0.3,0.3-0.6,0.6-0.9,1c-0.7,0.8-1.4,1.7-2.2,2.9c-1.6,2.3-3.3,5.3-4.7,9.2c-2.9,7.8-4.5,18.1-2.5,30.9
	c3.9,24.9,21,57.9,65.1,101.6l30.5-30.7c-41.2-40.9-51-65.9-52.8-77.6c-0.9-5.6,0-8.3,0.3-9c0.1-0.4,0.2-0.4,0-0.2
	c-0.1,0.1-0.2,0.3-0.5,0.6c-0.1,0.1-0.3,0.3-0.4,0.5c-0.1,0.1-0.2,0.2-0.3,0.3c0,0-0.1,0.1-0.1,0.2c0,0-0.1,0.1-0.1,0.1c0,0,0,0,0,0
	C234.3,228.3,234.2,228.4,219,213z M257.7,344.1c44,43.8,77.1,60.8,102.1,64.6c12.8,2,23.1,0.4,30.9-2.5c3.8-1.4,6.9-3.1,9.2-4.7
	c1.2-0.8,2.1-1.5,2.9-2.2c0.4-0.3,0.7-0.6,1-0.9c0.2-0.1,0.3-0.3,0.4-0.4c0.1-0.1,0.1-0.1,0.2-0.2c0,0,0.1-0.1,0.1-0.1c0,0,0,0,0,0
	c0,0,0,0-15.2-15.4c-15.2-15.3-15.2-15.4-15.2-15.4c0,0,0,0,0,0c0,0,0.1-0.1,0.1-0.1c0.1,0,0.1-0.1,0.2-0.1c0.1-0.1,0.2-0.2,0.3-0.3
	c0.2-0.2,0.3-0.3,0.5-0.4c0.3-0.2,0.5-0.4,0.6-0.5c0.3-0.2,0.2-0.1-0.2,0.1c-0.7,0.3-3.5,1.2-9.2,0.3c-11.9-1.8-37-11.6-78.2-52.6
	L257.7,344.1z M212.7,66.8c-29.4-39.2-87.2-45.5-122.3-10.6L121,86.9c15.3-15.2,42.5-13.7,57.2,5.8L212.7,66.8z M62.2,161.7
	c-0.6-10,4-20.4,13.5-29.9l-30.5-30.7c-15.5,15.4-27.7,37.2-26.2,63L62.2,161.7z M486.6,509.4c-7.9,7.9-16.4,12.3-25,13.1l4,43.1
	c21.2-2,38.5-12.7,51.4-25.5L486.6,509.4z M242.5,220.1c28.4-28.2,30.5-72.9,6.6-104.8l-34.6,25.9c11.6,15.5,9.9,35.9-2.5,48.2
	L242.5,220.1z M516.9,409.2c23.6,12.8,27.2,43,10.6,59.5l30.5,30.7c38.6-38.4,26.7-102.5-20.4-128.2L516.9,409.2z M417.7,384.7
	c11.1-11,28.9-13.7,44.1-5.5l20.7-38c-31.2-17-70-12.3-95.2,12.8L417.7,384.7z"/>
</svg>
